PathFileType  4	(X/Y/Z) C:\Users\wagnerel85475\Documents\Thesis\opencap-core\Data\3375ffbc-daeb-4a43-b4f7-ac9899cd4c71\MarkerData\PreAugmentation
DataRate	CameraRate	NumFrames	NumMarkers	Units	OrigDataRate	OrigDataStartFrame	OrigNumFrames
60.0	60.0	11	20	m	60.0	514	822
Frame#	Time	Neck			RShoulder			RElbow			RWrist			LShoulder			LElbow			LWrist			midHip			RHip			RKnee			RAnkle			LHip			LKnee			LAnkle			LBigToe			LSmallToe			LHeel			RBigToe			RSmallToe			RHeel			
		X1	Y1	Z1	X2	Y2	Z2	X3	Y3	Z3	X4	Y4	Z4	X5	Y5	Z5	X6	Y6	Z6	X7	Y7	Z7	X8	Y8	Z8	X9	Y9	Z9	X10	Y10	Z10	X11	Y11	Z11	X12	Y12	Z12	X13	Y13	Z13	X14	Y14	Z14	X15	Y15	Z15	X16	Y16	Z16	X17	Y17	Z17	X18	Y18	Z18	X19	Y19	Z19	X20	Y20	Z20	

514	8.5500000	0.5998600	1.3619000	-0.0691400	0.5989000	1.3608000	0.1130300	0.8069300	1.1725100	0.1759300	1.1179400	1.1686000	0.0757300	0.6077800	1.3627300	-0.2563700	0.9153700	1.1683600	-0.2810100	1.1643400	1.1804900	-0.1319300	0.6744600	0.8269700	-0.0599100	0.6601900	0.8292900	0.0605100	0.5853700	0.3280000	0.0679700	0.5180600	-0.1812300	0.1117400	0.6764100	0.8154700	-0.1799400	0.5909500	0.3260900	-0.1800700	0.5296000	-0.1849700	-0.2468900	0.7559400	-0.2306700	-0.3294400	0.7209300	-0.2304300	-0.3459600	0.4741100	-0.2387200	-0.2403800	0.6945300	-0.2400000	0.2381300	0.6651000	-0.2353900	0.2547200	0.5161400	-0.2170300	0.0927300
515	8.5666667	0.6000800	1.3665300	-0.0693100	0.6041700	1.3651300	0.1143600	0.8206000	1.1722700	0.1795600	1.1363100	1.1720100	0.0788300	0.6078200	1.3653100	-0.2564600	0.9167700	1.1745100	-0.2817200	1.1651800	1.1907700	-0.1278700	0.6700600	0.8226700	-0.0621100	0.6607600	0.8285400	0.0603200	0.5808700	0.3229600	0.0663600	0.5178200	-0.1812100	0.1115000	0.6765300	0.8130600	-0.1798400	0.5739100	0.3088600	-0.1873800	0.5299000	-0.1895800	-0.2476500	0.7598700	-0.2309600	-0.3276900	0.7246600	-0.2272800	-0.3443300	0.4732100	-0.2454400	-0.2456900	0.6999000	-0.2406600	0.2391800	0.6653900	-0.2337500	0.2543500	0.5156300	-0.2186500	0.0931600
516	8.5833333	0.5999100	1.3703500	-0.0691600	0.6157400	1.3647200	0.1141900	0.8182900	1.1748500	0.1794500	1.1442200	1.1732400	0.0782800	0.6293800	1.3708200	-0.2517400	0.9246500	1.1725100	-0.2765300	1.1723400	1.1919900	-0.1320500	0.6638300	0.8215800	-0.0594700	0.6554600	0.8262700	0.0629400	0.5854400	0.3280100	0.0679700	0.5187800	-0.1792100	0.1113500	0.6709200	0.8126100	-0.1822100	0.5730400	0.3106700	-0.1877100	0.5300500	-0.1893700	-0.2476100	0.7550200	-0.2362300	-0.3305000	0.7202300	-0.2343300	-0.3474000	0.4799800	-0.2409800	-0.2427200	0.6885500	-0.2396800	0.2369100	0.6591800	-0.2334600	0.2531600	0.5162500	-0.2172600	0.0927100
517	8.6000000	0.6000500	1.3729900	-0.0693600	0.6150200	1.3692000	0.1135900	0.8261400	1.1727000	0.1813100	1.1534500	1.1741300	0.0777600	0.6296400	1.3753500	-0.2471600	0.9311400	1.1701000	-0.2749700	1.1723900	1.1945600	-0.1320900	0.6601600	0.8253900	-0.0574000	0.6555500	0.8260300	0.0629600	0.5864600	0.3265000	0.0685200	0.5172700	-0.1833900	0.1118800	0.6712700	0.8187800	-0.1776000	0.5789300	0.3159800	-0.1904800	0.5248600	-0.1935900	-0.2501600	0.7494400	-0.2383300	-0.3285100	0.7144700	-0.2367100	-0.3498300	0.4671400	-0.2451500	-0.2437300	0.6984900	-0.2385500	0.2353500	0.6596700	-0.2339600	0.2524000	0.5144400	-0.2177600	0.0940200
518	8.6166667	0.6112200	1.3723400	-0.0649900	0.6214500	1.3736700	0.1159600	0.8350000	1.1731100	0.1847100	1.1579800	1.1774200	0.0836000	0.6349100	1.3749700	-0.2448400	0.9389800	1.1719500	-0.2742300	1.1844700	1.1971700	-0.1301100	0.6480100	0.8217600	-0.0566900	0.6495000	0.8256800	0.0610500	0.5962300	0.3285200	0.0675300	0.5175000	-0.1835400	0.1121100	0.6549600	0.8170900	-0.1798300	0.5946800	0.3287400	-0.1835500	0.5304000	-0.1914500	-0.2479700	0.7401900	-0.2416900	-0.3327900	0.7103200	-0.2378400	-0.3518400	0.4742200	-0.2449000	-0.2452900	0.7003100	-0.2378600	0.2396800	0.6652200	-0.2334900	0.2543500	0.5148200	-0.2164300	0.0935900
519	8.6333333	0.6169900	1.3746700	-0.0630800	0.6207500	1.3739000	0.1154500	0.8427500	1.1765700	0.1864600	1.1585500	1.1802100	0.0836900	0.6403500	1.3751400	-0.2471400	0.9450100	1.1741700	-0.2726400	1.1892000	1.1987500	-0.1282500	0.6391100	0.8188400	-0.0568000	0.6400200	0.8179400	0.0613100	0.6028200	0.3348100	0.0702700	0.5178800	-0.1812500	0.1115000	0.6445700	0.8155600	-0.1843000	0.5952600	0.3221800	-0.1882500	0.5293200	-0.1809900	-0.2462700	0.7453100	-0.2344200	-0.3296500	0.7151300	-0.2289700	-0.3484300	0.4853800	-0.2332900	-0.2398700	0.7042600	-0.2364900	0.2369100	0.6703300	-0.2302600	0.2513000	0.5089100	-0.2180700	0.0917800
520	8.6500000	0.6228500	1.3740500	-0.0606800	0.6216500	1.3755400	0.1160300	0.8503100	1.1779200	0.1856600	1.1576500	1.1833600	0.0836900	0.6402600	1.3749200	-0.2470900	0.9480700	1.1760300	-0.2697500	1.2019100	1.2002800	-0.1222100	0.6264600	0.8151800	-0.0558900	0.6329300	0.8156600	0.0597600	0.6086900	0.3293400	0.0761000	0.5174900	-0.1835600	0.1121000	0.6333700	0.8126600	-0.1793700	0.6148800	0.3373200	-0.1980800	0.5294900	-0.1805800	-0.2462200	0.7458400	-0.2342400	-0.3295400	0.7159300	-0.2284000	-0.3482000	0.4868500	-0.2307000	-0.2391400	0.7052100	-0.2384300	0.2366700	0.6700300	-0.2318600	0.2516700	0.5081700	-0.2199300	0.0922000
521	8.6666667	0.6230800	1.3744100	-0.0608300	0.6207400	1.3738500	0.1154700	0.8579200	1.1771100	0.1874400	1.1632700	1.1805900	0.0854800	0.6404900	1.3752300	-0.2470700	0.9497000	1.1771800	-0.2704100	1.2058200	1.1991400	-0.1244300	0.6103600	0.8160700	-0.0622100	0.6214800	0.8203900	0.0557100	0.6163500	0.3294000	0.0835800	0.5168100	-0.1854800	0.1122600	0.6119300	0.8125200	-0.1787800	0.6330500	0.3682800	-0.2042100	0.5294500	-0.1851800	-0.2462600	0.7452800	-0.2343100	-0.3296600	0.7147900	-0.2308300	-0.3487900	0.4854800	-0.2334300	-0.2398600	0.6994800	-0.2381000	0.2395800	0.6653300	-0.2337400	0.2543300	0.5192200	-0.2174700	0.0917700
522	8.6833333	0.6394000	1.3737800	-0.0589000	0.6279400	1.3730700	0.1179600	0.8559400	1.1778100	0.1874300	1.1713800	1.1813900	0.0848800	0.6457500	1.3747900	-0.2447900	0.9527100	1.1777800	-0.2675500	1.2020300	1.2002200	-0.1221800	0.5981300	0.8078800	-0.0615200	0.5992700	0.8118700	0.0571800	0.6214500	0.3323500	0.0853700	0.5166700	-0.1888500	0.1183700	0.6005800	0.8089200	-0.1786700	0.6686600	0.3805400	-0.2072700	0.5242700	-0.1888300	-0.2486900	0.7410200	-0.2360300	-0.3317800	0.7114600	-0.2321900	-0.3500500	0.4808200	-0.2347500	-0.2417000	0.7001600	-0.2395200	0.2400800	0.6651900	-0.2334700	0.2543900	0.5129900	-0.2241900	0.0955700
523	8.7000000	0.6504400	1.3717500	-0.0594300	0.6378300	1.3730500	0.1166500	0.8634900	1.1779800	0.1891200	1.1719500	1.1783300	0.0848800	0.6565600	1.3747400	-0.2448000	0.9543800	1.1761600	-0.2682700	1.2300100	1.1997800	-0.1248000	0.5995300	0.8040300	-0.0619300	0.6002100	0.8024900	0.0568400	0.6231100	0.3245100	0.0897800	0.5167300	-0.1910200	0.1178000	0.5955100	0.8040900	-0.1807000	0.6705600	0.3784900	-0.2123000	0.5240900	-0.1892000	-0.2487400	0.7405000	-0.2362000	-0.3318500	0.7101500	-0.2307300	-0.3506600	0.4854200	-0.2335200	-0.2398400	0.6994300	-0.2381500	0.2396000	0.6607000	-0.2335000	0.2566700	0.5132200	-0.2239500	0.0955800
524	8.7166667	0.6503400	1.3694100	-0.0592600	0.6399200	1.3685600	0.1217600	0.8669700	1.1766800	0.1909000	1.1757100	1.1746200	0.0866900	0.6619000	1.3721300	-0.2470400	0.9528200	1.1737900	-0.2675600	1.2142600	1.1978900	-0.1244900	0.5869000	0.7956200	-0.0660100	0.5848800	0.7960100	0.0598400	0.6459400	0.3353800	0.0962000	0.5228000	-0.1910500	0.1202300	0.5842300	0.7942000	-0.1808700	0.6497600	0.3525400	-0.2155500	0.5300500	-0.1867700	-0.2502600	0.7407100	-0.2342000	-0.3321000	0.7106700	-0.2281600	-0.3508000	0.4816400	-0.2372700	-0.2413000	0.6944600	-0.2397700	0.2381800	0.6547100	-0.2352800	0.2551300	0.5129900	-0.2257400	0.0959600
